<svg width="731.292" height="800.357" viewBox="0 0 731.292 800.357" xmlns="http://www.w3.org/2000/svg" xmlns:xlink="http://www.w3.org/1999/xlink" overflow="hidden"><g transform="translate(-549 -161.82)"><path d="M410.273 55.785 117 217.329C83.122 260.765 726.849 263.45 721.536 217.489L437.154 55.945C428.798 51.3451 418.683 51.2849 410.273 55.785Z" fill="#FFB9F4" transform="translate(555.731 164.872)"/><path d="M410.273 55.785 117 217.329C83.122 260.765 726.849 263.45 721.536 217.489L437.154 55.945C428.798 51.3451 418.683 51.2849 410.273 55.785Z" opacity="0.2" transform="translate(555.731 164.872)"/><path d="M727.053 760.948 652.453 759.358 140.911 759.358 0 756.178C467.161 645.771 323.523 655.278 727.053 760.948Z" fill="#F2F2F2" opacity="0.8" transform="translate(549 201.23)"/><path d="M650.627 754.542 644.706 757.722 133.164 757.722C482.842 685.542 273.2 691.9 650.627 754.542Z" fill="#E6E6E6" transform="translate(556.747 202.866)"/><path d="M388.6 45.351 410.617 45.351 403.189 3.5C402.73 0.917 400.972 0 399.605 0 398.238 0 396.48 0.917 396.021 3.5Z" fill="#3F3D56" transform="translate(571.606 161.82)"/><rect x="0" y="0" width="24.275" height="592.063" fill="#3F3D56" transform="translate(958.115 345.25)"/><path d="M403.037 264.931C392.746 264.959 382.867 260.886 375.585 253.614L314.32 192.789 319.32 187.747 380.585 248.572C393.078 260.975 413.261 260.902 425.664 248.409 425.751 248.321 425.837 248.233 425.923 248.145L484.466 187.794 489.566 192.741 431.023 253.092C423.788 260.595 413.833 264.863 403.411 264.93L403.033 264.93Z" fill="#3F3D56" transform="translate(567.285 172.742)"/><path d="M423.27 228.083C393.124 228.083 362.741 227.983 333.251 227.771 270.77 227.327 217.425 226.449 178.985 225.232 113.464 223.158 112.766 220.801 112.468 219.795 112.4 219.562 112.376 219.111 112.993 218.705L405.46 26.372C412.463 21.7341 421.577 21.7993 428.513 26.537L724.2 218.863C724.817 219.282 724.786 219.734 724.714 219.963 724.345 221.145 723.225 224.742 593.397 226.856 544 227.663 484.134 228.083 423.27 228.083Z" fill="#FFB9F4" transform="translate(555.541 163.155)"/><g transform="translate(1048.2 773.266)"><g transform="translate(188.489 101.862)"><path d="M264.506 733.463C257.706 741.613 256.394 751.73 261.582 756.063 266.77 760.396 276.488 757.293 283.292 749.139 286.055 745.919 288.006 742.085 288.983 737.956L353.383 665.748 333.427 654.961 274.497 725.866C270.609 727.565 267.184 730.171 264.509 733.466L264.509 733.466Z" fill="#FFB6B6" transform="translate(-258.407 -560.982)"/><path d="M384.743 566.148 394.623 605.284 350.63 681.7 324.2 662.279 330.684 657.085 368.422 577.269Z" fill="#F2F2F2" transform="translate(-254.58 -566.148)"/></g><path d="M332.5 507.07C339.958 507.052 340.381 507.102 341.587 507.07 350.837 506.826 353.256 503.187 357.944 503.435 366.312 503.878 355.268 545.835 350.674 565.228 346.174 584.25 361.393 601.296 362.487 602.486 377.94 619.292 405.087 622.365 409.74 615.208 413.51 609.415 400.149 600.608 403.379 587.946 406.536 575.569 421.113 576.887 425.188 565.228 429.455 553.018 415.115 546.859 406.105 517.066 400.931 499.955 401.846 496.766 397.018 486.166 384.112 457.839 320.854 469.9 327.955 496.166 329.329 501.246 325.673 507.087 332.499 507.066Z" fill="#090814" transform="translate(-65.905 -469.886)"/></g></g></svg>